# xmcd
# 
# Track frame offsets:
#     180
#     14271
#     23433
#     35124
#     51558
#     64461
#     75267
#     91250
#     108199
#     124301
#     136447
#     148050
#     158367
#     176791
#     188360
#     202469
#     219276
#     232240
#     243140
#     259466
#     274448
#     285720
#     305575
#     321114
# 
# Disc length: 4438
# 
# Revision: 2
# Processed by: cddbd v1.5.2PL0 Copyright (c) Steve Scherf et al.
# Submitted via: BonkEnc v1.0.8
# 
DISCID=67115418
DTITLE=Tião Carreiro and Pardinho - Dose Dupla vol.7
DYEAR=0
DGENRE=
TTITLE0=Cochilou, o cachimbo cai
TTITLE1=Começo do fim
TTITLE2=Velho marrudo
TTITLE3=Lá onde eu moro
TTITLE4=Homem sem rumo
TTITLE5=Minha Mágoa
TTITLE6=Rio de lágrimas
TTITLE7=João bobo
TTITLE8=O gavião e a andorinha
TTITLE9=A casa
TTITLE10=Nosso romance
TTITLE11=A força do perdão
TTITLE12=A beleza do ponteio
TTITLE13=Quatro horas
TTITLE14=Feliz casamento
TTITLE15=Companheiro do ferreirinha
TTITLE16=Paisagens do sertão
TTITLE17=Canoeiro do mar
TTITLE18=Em tempo de avanço
TTITLE19=A vida de um policial
TTITLE20=Nossa senhora da guia
TTITLE21=O justiceiro
TTITLE22=Minha esposa vale ouro
TTITLE23=A viola e o violeiro
EXTD=
EXTT0=
EXTT1=
EXTT2=
EXTT3=
EXTT4=
EXTT5=
EXTT6=
EXTT7=
EXTT8=
EXTT9=
EXTT10=
EXTT11=
EXTT12=
EXTT13=
EXTT14=
EXTT15=
EXTT16=
EXTT17=
EXTT18=
EXTT19=
EXTT20=
EXTT21=
EXTT22=
EXTT23=
PLAYORDER=
